<svg width="1170" height="2532" viewBox="0 0 1170 2532" fill="none" xmlns="http://www.w3.org/2000/svg">
  <defs>
    <linearGradient id="bg" x1="0" y1="0" x2="1170" y2="2532" gradientUnits="userSpaceOnUse">
      <stop stop-color="#0B0A10"/>
      <stop offset="0.55" stop-color="#2B143D"/>
      <stop offset="1" stop-color="#1B2B57"/>
    </linearGradient>
    <radialGradient id="glow1" cx="0" cy="0" r="1" gradientUnits="userSpaceOnUse" gradientTransform="translate(310 360) rotate(35) scale(700 700)">
      <stop stop-color="#7A3CFF" stop-opacity="0.35"/>
      <stop offset="1" stop-color="#7A3CFF" stop-opacity="0"/>
    </radialGradient>
    <radialGradient id="glow2" cx="0" cy="0" r="1" gradientUnits="userSpaceOnUse" gradientTransform="translate(900 620) rotate(140) scale(680 680)">
      <stop stop-color="#4F7BFF" stop-opacity="0.28"/>
      <stop offset="1" stop-color="#4F7BFF" stop-opacity="0"/>
    </radialGradient>
    <filter id="blur" x="-20" y="-20" width="140" height="140">
      <feGaussianBlur stdDeviation="12"/>
    </filter>
  </defs>

  <rect width="1170" height="2532" fill="url(#bg)"/>
  <rect width="1170" height="2532" fill="url(#glow1)"/>
  <rect width="1170" height="2532" fill="url(#glow2)"/>

  <text x="88" y="182" fill="#F6F2FF" font-size="74" font-family="Arial" font-weight="700">SipControl</text>
  <text x="88" y="238" fill="#C8BFDA" font-size="36" font-family="Arial">Control personal de bebidas</text>

  <rect x="64" y="300" width="1042" height="760" rx="66" fill="rgba(255,255,255,0.08)" stroke="rgba(255,255,255,0.16)"/>
  <text x="120" y="392" fill="#C8BFDA" font-size="34" font-family="Arial">Bebida actual</text>
  <text x="120" y="472" fill="#F6F2FF" font-size="64" font-family="Arial" font-weight="700">🍺 Cerveza</text>

  <rect x="120" y="530" width="430" height="170" rx="34" fill="rgba(255,255,255,0.06)"/>
  <rect x="620" y="530" width="430" height="170" rx="34" fill="rgba(255,255,255,0.06)"/>
  <text x="170" y="622" fill="#F6F2FF" font-size="62" font-family="Arial" font-weight="700">2</text>
  <text x="170" y="670" fill="#C8BFDA" font-size="30" font-family="Arial">Hoy</text>
  <text x="670" y="622" fill="#F6F2FF" font-size="62" font-family="Arial" font-weight="700">3</text>
  <text x="670" y="670" fill="#C8BFDA" font-size="30" font-family="Arial">Límite</text>

  <circle cx="585" cy="824" r="156" fill="#7D3CFF"/>
  <circle cx="585" cy="824" r="190" fill="#7D3CFF" fill-opacity="0.25" filter="url(#blur)"/>
  <text x="530" y="853" fill="#FFFFFF" font-size="112" font-family="Arial" font-weight="700">+1</text>

  <rect x="335" y="958" width="500" height="82" rx="26" fill="rgba(255,255,255,0.12)"/>
  <text x="430" y="1010" fill="#F6F2FF" font-size="36" font-family="Arial">Deshacer último</text>

  <rect x="64" y="1110" width="506" height="290" rx="46" fill="rgba(255,255,255,0.07)" stroke="rgba(255,255,255,0.12)"/>
  <rect x="600" y="1110" width="506" height="290" rx="46" fill="rgba(255,255,255,0.07)" stroke="rgba(255,255,255,0.12)"/>
  <rect x="64" y="1430" width="506" height="290" rx="46" fill="rgba(255,255,255,0.07)" stroke="rgba(255,255,255,0.12)"/>
  <rect x="600" y="1430" width="506" height="290" rx="46" fill="rgba(255,255,255,0.07)" stroke="rgba(255,255,255,0.12)"/>

  <text x="116" y="1205" fill="#F6F2FF" font-size="44" font-family="Arial" font-weight="700">Cambiar bebida</text>
  <text x="116" y="1275" fill="#C8BFDA" font-size="32" font-family="Arial">Selector rápido</text>

  <text x="652" y="1205" fill="#F6F2FF" font-size="44" font-family="Arial" font-weight="700">Límite</text>
  <text x="652" y="1275" fill="#C8BFDA" font-size="32" font-family="Arial">3 bebidas/día</text>

  <text x="116" y="1525" fill="#F6F2FF" font-size="44" font-family="Arial" font-weight="700">Ver calendario</text>
  <text x="116" y="1595" fill="#C8BFDA" font-size="32" font-family="Arial">Mes + detalle por día</text>

  <text x="652" y="1525" fill="#F6F2FF" font-size="44" font-family="Arial" font-weight="700">Exportar</text>
  <text x="652" y="1595" fill="#C8BFDA" font-size="32" font-family="Arial">Backup JSON</text>

  <rect x="104" y="2240" width="962" height="200" rx="68" fill="rgba(9,8,14,0.82)" stroke="rgba(255,255,255,0.14)"/>
  <text x="188" y="2354" fill="#AFA3C9" font-size="34" font-family="Arial">Home</text>
  <text x="390" y="2354" fill="#AFA3C9" font-size="34" font-family="Arial">Calendar</text>
  <text x="610" y="2354" fill="#F6F2FF" font-size="34" font-family="Arial" font-weight="700">Add</text>
  <text x="780" y="2354" fill="#AFA3C9" font-size="34" font-family="Arial">Drinks</text>
  <text x="940" y="2354" fill="#AFA3C9" font-size="34" font-family="Arial">Settings</text>
</svg>
